<?xml version="1.0" standalone="no"?><!DOCTYPE svg PUBLIC "-//W3C//DTD SVG 1.1//EN" "http://www.w3.org/Graphics/SVG/1.1/DTD/svg11.dtd"><svg class="icon" style="" viewBox="0 0 1024 1024" version="1.1" xmlns="http://www.w3.org/2000/svg" p-id="2371" xmlns:xlink="http://www.w3.org/1999/xlink" width="100" height="100"><defs><style type="text/css"><![CDATA[

]]></style></defs><path d="M511.998465 64.757886c-247.004627 0-447.241091 200.236464-447.241091 447.242114 0 247.004627 200.236464 447.242114 447.241091 447.242114s447.243137-200.237487 447.243137-447.242114C959.241602 264.99435 759.003092 64.757886 511.998465 64.757886zM728.312092 575.543222 536.311197 731.942271c-12.658298 13.818727-33.215496 13.818727-45.870724 0L296.647769 575.532989c-12.654204-13.818727-12.654204-36.266995 0-50.084699 6.330172-6.942109 14.646582-13.44829 22.964014-13.44829 8.290827 0 14.143115 3.668553 23.212678 10.743692l138.080845 109.835547L480.905306 317.117474c0-19.593244 14.528901-35.422767 32.471552-35.422767s32.468482 15.829524 32.468482 35.422767l0 317.508377 133.069715-113.692389c17.202801-14.310937 34.666544-12.397355 47.350424 1.454118C738.921731 536.205285 740.968343 561.724495 728.312092 575.543222z" p-id="2372" fill="#2c2c2c"></path></svg>